<?xml version="1.0" encoding="UTF-8" standalone="no"?>
<svg
    xmlns="http://www.w3.org/2000/svg"
    viewBox="0 0 93.480003 101.92"
    height="101.92"
    width="93.480003"
>
    <g transform="matrix(1.3333333,0,0,-1.3333333,0,101.92)">
        <g transform="scale(0.1)">
            <path style="fill:#221c1d;fill-opacity:1;fill-rule:nonzero;stroke:none" d="m 183.285,603.324 c -0.765,8.242 -1.558,38.242 23.43,63.227 l 66.172,66.172 c 42.254,42.257 110.465,42.257 152.718,0 42.25,-42.25 42.25,-110.457 -0.003,-152.715 -42.25,-42.25 -110.461,-42.25 -152.711,0 -13.965,13.972 -23.325,30.672 -28.063,48.289 l 0.11,0.234 c -21.864,0.141 -43.786,-8.008 -60.727,-24.465"/>
            <path style="fill:#59ba34;fill-opacity:1;fill-rule:nonzero;stroke:none" d="m 333.184,643.035 c 8.3,-8.301 21.882,-8.301 30.191,0.008 8.305,8.301 8.305,21.883 0,30.187 -8.309,8.301 -21.891,8.301 -30.191,0 -8.305,-8.304 -8.305,-21.886 0,-30.195"/>
            <path style="fill:#211d1d;fill-opacity:1;fill-rule:nonzero;stroke:none" d="m 70.9844,347.977 c -7.5156,3.457 -33.8946,17.773 -43.0391,51.906 L 3.72656,490.277 C -11.7422,547.996 22.3633,607.07 80.082,622.535 c 57.715,15.461 116.789,-18.64 132.254,-76.363 15.469,-57.715 -18.641,-116.781 -76.356,-132.25 -19.082,-5.109 -38.2222,-4.863 -55.8472,-0.156 l -0.1484,0.207 C 68.9297,395.113 65.0273,372.051 70.8047,349.148"/>
            <path style="fill:#f6f6f6;fill-opacity:1;fill-rule:nonzero;stroke:none" d="m 122.594,456.418 c 34.027,9.109 54.398,44.402 45.281,78.434 -9.113,34.023 -44.406,54.406 -78.4375,45.289 -34.0273,-9.121 -54.4023,-44.414 -45.2891,-78.442 9.1211,-34.027 44.4141,-54.406 78.4456,-45.281"/>
            <path style="fill:#211d1d;fill-opacity:1;fill-rule:nonzero;stroke:none" d="m 242.859,126.023 c -6.757,-4.781 -32.336,-20.468 -66.468,-11.324 L 85.9961,138.918 C 28.2773,154.383 -5.82813,213.457 9.64063,271.18 25.1016,328.895 84.1758,362.996 141.895,347.527 199.609,332.059 233.715,273 218.254,215.285 213.137,196.203 203.355,179.746 190.465,166.836 l -0.262,-0.031 c 10.813,-19.004 28.828,-33.907 51.555,-40.348"/>
            <path style="fill:#57c8d9;fill-opacity:1;fill-rule:nonzero;stroke:none" d="m 133.516,235.977 c 3.039,11.336 -3.754,23.105 -15.098,26.144 -11.344,3.047 -23.1055,-3.75 -26.1446,-15.101 -3.039,-11.336 3.75,-23.102 15.0936,-26.141 11.344,-3.039 23.106,3.758 26.149,15.098"/>
            <path style="fill:#211d1d;fill-opacity:1;fill-rule:nonzero;stroke:none" d="m 517.027,161.082 c 0.766,-8.242 1.555,-38.242 -23.429,-63.2187 L 427.426,31.6875 c -42.254,-42.2539 -110.461,-42.2539 -152.719,0 -42.25,42.2461 -42.25,110.4605 0.004,152.7185 42.254,42.242 110.461,42.242 152.711,0 13.965,-13.968 23.324,-30.664 28.062,-48.281 l -0.109,-0.238 c 21.859,-0.145 43.785,8.008 60.727,24.453"/>
            <path style="fill:#eb048d;fill-opacity:1;fill-rule:nonzero;stroke:none" d="m 382.223,136.473 c -16.61,16.605 -43.778,16.605 -60.383,-0.008 -16.606,-16.602 -16.606,-43.7697 0,-60.383 16.605,-16.6015 43.773,-16.6015 60.383,0 16.605,16.6133 16.605,43.781 0,60.391"/>
            <path style="fill:#211d1d;fill-opacity:1;fill-rule:nonzero;stroke:none" d="m 629.324,416.418 c 7.528,-3.461 33.903,-17.77 43.047,-51.898 l 24.223,-90.399 C 712.055,216.395 677.953,157.332 620.23,141.867 562.516,126.395 503.445,160.5 487.977,218.23 c -15.461,57.719 18.64,116.778 76.359,132.247 19.078,5.109 38.223,4.863 55.844,0.156 l 0.152,-0.215 c 11.051,18.867 14.957,41.93 9.176,64.832"/>
            <path style="fill:#fad208;fill-opacity:1;fill-rule:nonzero;stroke:none" d="m 577.727,307.977 c -34.032,-9.11 -54.407,-44.403 -45.286,-78.434 9.114,-34.027 44.407,-54.398 78.434,-45.285 34.027,9.121 54.402,44.414 45.285,78.437 -9.113,34.032 -44.406,54.403 -78.433,45.282"/>
            <path style="fill:#211d1d;fill-opacity:1;fill-rule:nonzero;stroke:none" d="m 464.117,635.043 c 6.75,4.785 32.336,20.469 66.469,11.324 l 90.391,-24.219 C 678.699,606.68 712.805,547.613 697.34,489.887 681.871,432.172 622.805,398.07 565.078,413.535 507.363,429 473.262,488.07 488.727,545.785 c 5.113,19.078 14.894,35.539 27.781,48.449 l 0.262,0.024 c -10.809,19 -28.832,33.91 -51.551,40.355"/>
            <path style="fill:#f03d21;fill-opacity:1;fill-rule:nonzero;stroke:none" d="m 552.844,530.609 c -6.086,-22.679 7.5,-46.214 30.187,-52.289 22.684,-6.078 46.215,7.504 52.289,30.192 6.082,22.683 -7.504,46.215 -30.187,52.289 -22.688,6.082 -46.219,-7.5 -52.289,-30.192"/>
        </g>
    </g>
</svg>
