<?xml version="1.0" encoding="UTF-8" standalone="no"?>
<svg
    xmlns="http://www.w3.org/2000/svg"
    viewBox="0 0 92.73333 106.73333"
    height="106.73333"
    width="92.73333"
>
    <g transform="matrix(1.3333333,0,0,-1.3333333,0,106.73333)">
        <g transform="scale(0.1)">
            <path style="fill:#59ba34;fill-opacity:1;fill-rule:nonzero;stroke:none" d="m 390,611.902 c 0,13.813 -11.191,25 -25,25 H 192.949 c -17.328,-15.675 -33.719,-32.371 -49.07,-50 H 365 c 13.809,0 25,11.192 25,25"/>
            <path style="fill:#f03d21;fill-opacity:1;fill-rule:nonzero;stroke:none" d="m 390,488.57 c 0,13.809 -11.191,25 -25,25 H 89.4805 C 79.3242,497.402 69.8789,480.746 61.3086,463.57 H 365 c 13.809,0 25,11.192 25,25"/>
            <path style="fill:#fad208;fill-opacity:1;fill-rule:nonzero;stroke:none" d="m 390,365.234 c 0,13.809 -11.191,25.004 -25,25.004 H 30.8672 C 25.332,373.875 20.4375,357.215 16.3438,340.234 H 365 c 13.809,0 25,11.192 25,25"/>
            <path style="fill:#eb048d;fill-opacity:1;fill-rule:nonzero;stroke:none" d="m 390,241.902 c 0,13.813 -11.191,25 -25,25 H 3.57813 C 1.77734,250.43 0.691406,233.75 0.28125,216.902 H 365 c 13.809,0 25,11.192 25,25"/>
            <path style="fill:#221c1d;fill-opacity:1;fill-rule:nonzero;stroke:none" d="m 695.344,728.953 c -31.496,16.043 -65.285,28.219 -100.754,35.914 -0.938,0.199 -1.875,0.403 -2.813,0.602 l 1.055,-0.227 c -3.184,0.653 -6.328,2.11 -8.848,3.961 0.055,-0.043 0.114,-0.082 0.164,-0.125 l -0.164,0.125 v 0 c -0.777,0.602 -1.546,1.195 -2.336,1.789 -24.707,18.508 -55.398,29.473 -88.64,29.473 -38.906,0 -74.297,-15.012 -100.711,-39.559 -0.024,-0.019 -0.051,-0.039 -0.07,-0.058 l -0.098,-0.129 c -0.027,-0.031 -0.059,-0.059 -0.086,-0.086 C 387.297,755.668 381.492,751.719 375,749.129 307.344,723.031 245.785,684.703 192.949,636.902 H 365 c 13.809,0 25,-11.187 25,-25 0,-13.808 -11.191,-25 -25,-25 H 143.879 C 123.906,563.965 105.73,539.434 89.4805,513.57 H 365 c 13.809,0 25,-11.191 25,-25 0,-13.808 -11.191,-25 -25,-25 H 61.3086 C 49.5508,440 39.4102,415.488 30.8672,390.238 H 365 c 13.809,0 25,-11.195 25,-25.004 0,-13.808 -11.191,-25 -25,-25 H 16.3438 C 10.5742,316.328 6.3125,291.855 3.57813,266.902 H 365 c 13.809,0 25,-11.187 25,-25 0,-13.808 -11.191,-25 -25,-25 H 0.28125 C 0.167969,212.082 0,207.266 0,202.422 0,165.32 3.44531,129.023 10.0391,93.8398 L 44.1211,36.2773 C 47.5273,23.5859 57.9883,13.7891 71.0469,11.3398 L 69.375,11.6797 C 100.012,4.41406 131.98,0 164.844,0 c 227.39,0 411.738,184.344 411.738,411.738 0,22.254 -1.769,44.102 -5.164,65.399 l 0.535,-3.465 c -2.187,14.277 -3.035,28.973 -3.035,43.867 0,57.039 16.602,110.203 45.254,154.91 0.293,0.461 0.586,0.91 0.879,1.367 16.406,29.258 45.84,50.243 80.449,55.059 l -0.156,0.078"/>
            <path style="fill:#ffffff;fill-opacity:1;fill-rule:nonzero;stroke:none" d="m 493.008,719.195 c -12.285,0 -22.238,9.95 -22.238,22.231 0,12.285 9.953,22.234 22.238,22.234 12.273,0 22.238,-9.949 22.238,-22.234 0,-12.281 -9.965,-22.231 -22.238,-22.231"/>
        </g>
    </g>
</svg>
