<?xml version="1.0" encoding="UTF-8" standalone="no"?>
<svg
   xmlns:dc="http://purl.org/dc/elements/1.1/"
   xmlns:cc="http://creativecommons.org/ns#"
   xmlns:rdf="http://www.w3.org/1999/02/22-rdf-syntax-ns#"
   xmlns:svg="http://www.w3.org/2000/svg"
   xmlns="http://www.w3.org/2000/svg"
   viewBox="0 0 48 66.666664"
   height="66.666664"
   width="48"
   xml:space="preserve"
   id="svg2"
   version="1.1"><metadata
     id="metadata8"><rdf:RDF><cc:Work
         rdf:about=""><dc:format>image/svg+xml</dc:format><dc:type
           rdf:resource="http://purl.org/dc/dcmitype/StillImage" /></cc:Work></rdf:RDF></metadata><defs
     id="defs6" /><g
     transform="matrix(1.3333333,0,0,-1.3333333,0,66.666667)"
     id="g10"><g
       transform="scale(0.1)"
       id="g12"><path
         id="path14"
         style="fill:#f03d21;fill-opacity:1;fill-rule:nonzero;stroke:none"
         d="M 55,40.5 C 55,18.1367 68.4375,0 85,0 c 16.563,0 30,18.1367 30,40.5 v 162 H 55 v -162" /><path
         id="path16"
         style="fill:#59ba34;fill-opacity:1;fill-rule:nonzero;stroke:none"
         d="M 235,39.0039 C 235,17.4609 248.438,0 265,0 c 16.563,0 30,17.4609 30,39.0039 V 195 H 235 V 39.0039" /><path
         id="path18"
         style="fill:#100f0d;fill-opacity:1;fill-rule:nonzero;stroke:none"
         d="M 0,290 C 0,207.156 67.1563,140 150,140 h 60 c 82.844,0 150,67.156 150,150 v 60 c 0,82.844 -67.156,150 -150,150 H 150 C 67.1563,500 0,432.844 0,350 v -60" /><path
         id="path20"
         style="fill:#ffffff;fill-opacity:1;fill-rule:nonzero;stroke:none"
         d="m 182.656,215.281 c -31.472,0 -61.113,12.297 -83.4372,34.621 -21.9727,21.977 -34.2305,51.246 -34.4922,82.411 -0.0469,5.523 4.3945,10.035 9.9218,10.085 0.0196,0 0.0469,0 0.0782,0 5.4882,0 9.9531,-4.418 10,-9.918 0.2148,-25.882 10.3906,-50.191 28.6324,-68.437 18.555,-18.543 43.164,-28.762 69.297,-28.762 26.145,0 50.75,10.223 69.297,28.766 18.66,18.672 28.879,43.441 28.762,69.754 -0.031,5.519 4.43,10.015 9.949,10.043 0.02,0 0.039,0 0.051,0 5.496,0 9.969,-4.449 10,-9.957 0.144,-31.68 -12.152,-61.504 -34.621,-83.981 -22.324,-22.328 -51.953,-34.613 -83.438,-34.625" /><path
         id="path22"
         style="fill:#ffffff;fill-opacity:1;fill-rule:nonzero;stroke:none"
         d="m 285,399.566 c 0,-11.046 -8.953,-20 -20,-20 -11.043,0 -20,8.954 -20,20 0,11.043 8.957,20 20,20 11.047,0 20,-8.957 20,-20" /><path
         id="path24"
         style="fill:#ffffff;fill-opacity:1;fill-rule:nonzero;stroke:none"
         d="m 115,399.566 c 0,-11.046 -8.953,-20 -20,-20 -11.043,0 -20,8.954 -20,20 0,11.043 8.957,20 20,20 11.047,0 20,-8.957 20,-20" /></g></g></svg>